<svg width="40" height="40" viewBox="0 0 40 40" fill="none" xmlns="http://www.w3.org/2000/svg">
<rect width="40" height="40" rx="20" fill="#547CDE"/>
<path d="M24.9998 19.1666V20.8333H28.3332V19.1666H24.9998ZM23.3332 24.675C24.1332 25.2666 25.1748 26.05 25.9998 26.6666C26.3332 26.225 26.6665 25.775 26.9998 25.3333C26.1748 24.7166 25.1332 23.9333 24.3332 23.3333C23.9998 23.7833 23.6665 24.2333 23.3332 24.675ZM26.9998 14.6666C26.6665 14.225 26.3332 13.775 25.9998 13.3333C25.1748 13.95 24.1332 14.7333 23.3332 15.3333C23.6665 15.775 23.9998 16.225 24.3332 16.6666C25.1332 16.0666 26.1748 15.2916 26.9998 14.6666ZM13.3332 17.5C12.4165 17.5 11.6665 18.25 11.6665 19.1666V20.8333C11.6665 21.75 12.4165 22.5 13.3332 22.5H14.1665V25.8333H15.8332V22.5H16.6665L20.8332 25V15L16.6665 17.5H13.3332ZM22.9165 20C22.9165 18.8916 22.4332 17.8916 21.6665 17.2083V22.7833C22.4332 22.1083 22.9165 21.1083 22.9165 20Z" fill="white"/>
</svg>
